<svg width="19" height="19" viewBox="0 0 19 19" fill="none" xmlns="http://www.w3.org/2000/svg">
<path d="M17.2741 4.86758L9.04938 13.0911C8.23036 13.91 5.79911 14.2892 5.25597 13.7462C4.71283 13.2031 5.08354 10.7723 5.90257 9.95336L14.136 1.72123C14.339 1.49975 14.5848 1.32171 14.8586 1.19784C15.1323 1.07397 15.4284 1.00682 15.7289 1.00049C16.0292 0.994173 16.3279 1.04877 16.6066 1.16101C16.8853 1.27326 17.1384 1.44083 17.3506 1.65357C17.5628 1.86632 17.7297 2.11983 17.8412 2.39883C17.9526 2.67783 18.0065 2.97652 17.9994 3.27688C17.9922 3.57725 17.9242 3.87308 17.7996 4.14646C17.675 4.41985 17.4962 4.66517 17.2741 4.86758Z" stroke="#2F3192" stroke-linecap="round" stroke-linejoin="round"/>
<path d="M8.5 3H4.33333C3.44927 3 2.60148 3.35118 1.97636 3.97631C1.35124 4.60143 1 5.44927 1 6.33333V14.6667C1 15.5507 1.35124 16.3986 1.97636 17.0237C2.60148 17.6488 3.44927 18 4.33333 18H13.5C15.3417 18 16 16.5 16 14.6667V10.5" stroke="#2F3192" stroke-linecap="round" stroke-linejoin="round"/>
</svg>
